<svg xmlns="http://www.w3.org/2000/svg" width="1700" height="1380" viewBox="0 0 1700 1380">
<defs>
  <linearGradient id="bg" x1="0" y1="0" x2="1" y2="1">
    <stop offset="0%" stop-color="#071018"/>
    <stop offset="100%" stop-color="#102033"/>
  </linearGradient>
  <style>
    .title { font: 700 38px Helvetica, Arial, sans-serif; fill: #e5eef7; }
    .subtitle { font: 500 19px Helvetica, Arial, sans-serif; fill: #b4c3d4; }
    .label { font: 700 22px Helvetica, Arial, sans-serif; fill: #dde7f1; }
    .body { font: 500 16px Helvetica, Arial, sans-serif; fill: #c8d4e0; }
    .small { font: 500 14px Helvetica, Arial, sans-serif; fill: #9fb2c7; }
    .tiny { font: 500 13px Helvetica, Arial, sans-serif; fill: #92a5ba; }
  </style>
</defs>
<rect width="1700" height="1380" fill="url(#bg)"/>
<text x="62.0" y="66.0" class="title" text-anchor="start">Invariant lines, real rotation, and defect</text>
<text x="62.0" y="100.0" class="subtitle" text-anchor="start"><tspan x="62.0" dy="0">Three 2x2 maps can all preserve the plane while telling different diagonalization stories.</tspan><tspan x="62.0" dy="24">The point is to keep “no real eigenline” separate from “one eigenline is not enough.”</tspan></text>
<rect x="70.0" y="220.0" width="500.0" height="600.0" rx="28.0" fill="#122033" stroke="#32485f" stroke-width="2.0"/>
<text x="94.0" y="258.0" class="label" text-anchor="start">Diagonal scaling</text>
<text x="94.0" y="288.0" class="small" text-anchor="start"><tspan x="94.0" dy="0">[[3, 0], [0, 0.5]]</tspan><tspan x="94.0" dy="20">two invariant lines</tspan></text>
<rect x="170.0" y="330.0" width="300.0" height="300.0" rx="18.0" fill="#0b1524" stroke="#334155" stroke-width="1.5"/>
<line x1="245.0" y1="340.0" x2="245.0" y2="620.0" stroke="#223246" stroke-width="1.0" stroke-linecap="round" opacity="0.85"/>
<line x1="180.0" y1="405.0" x2="460.0" y2="405.0" stroke="#223246" stroke-width="1.0" stroke-linecap="round" opacity="0.85"/>
<line x1="320.0" y1="340.0" x2="320.0" y2="620.0" stroke="#223246" stroke-width="1.0" stroke-linecap="round" opacity="0.85"/>
<line x1="180.0" y1="480.0" x2="460.0" y2="480.0" stroke="#223246" stroke-width="1.0" stroke-linecap="round" opacity="0.85"/>
<line x1="395.0" y1="340.0" x2="395.0" y2="620.0" stroke="#223246" stroke-width="1.0" stroke-linecap="round" opacity="0.85"/>
<line x1="180.0" y1="555.0" x2="460.0" y2="555.0" stroke="#223246" stroke-width="1.0" stroke-linecap="round" opacity="0.85"/>
<line x1="184.0" y1="480.0" x2="456.0" y2="480.0" stroke="#4b647c" stroke-width="1.4" stroke-linecap="round" opacity="1.00"/>
<line x1="320.0" y1="344.0" x2="320.0" y2="616.0" stroke="#4b647c" stroke-width="1.4" stroke-linecap="round" opacity="1.00"/>
<polyline points="396.0,480.0 396.0,478.0 395.9,476.0 395.8,474.0 395.6,472.1 395.3,470.1 395.1,468.1 394.7,466.2 394.3,464.2 393.9,462.3 393.4,460.3 392.9,458.4 392.3,456.5 391.6,454.6 391.0,452.8 390.2,450.9 389.4,449.1 388.6,447.3 387.7,445.5 386.8,443.7 385.8,442.0 384.8,440.3 383.7,438.6 382.6,437.0 381.5,435.3 380.3,433.7 379.1,432.2 377.8,430.6 376.5,429.1 375.1,427.7 373.7,426.3 372.3,424.9 370.9,423.5 369.4,422.2 367.8,420.9 366.3,419.7 364.7,418.5 363.0,417.4 361.4,416.3 359.7,415.2 358.0,414.2 356.3,413.2 354.5,412.3 352.7,411.4 350.9,410.6 349.1,409.8 347.2,409.0 345.4,408.4 343.5,407.7 341.6,407.1 339.7,406.6 337.7,406.1 335.8,405.7 333.8,405.3 331.9,404.9 329.9,404.7 327.9,404.4 326.0,404.2 324.0,404.1 322.0,404.0 320.0,404.0 318.0,404.0 316.0,404.1 314.0,404.2 312.1,404.4 310.1,404.7 308.1,404.9 306.2,405.3 304.2,405.7 302.3,406.1 300.3,406.6 298.4,407.1 296.5,407.7 294.6,408.4 292.8,409.0 290.9,409.8 289.1,410.6 287.3,411.4 285.5,412.3 283.7,413.2 282.0,414.2 280.3,415.2 278.6,416.3 277.0,417.4 275.3,418.5 273.7,419.7 272.2,420.9 270.6,422.2 269.1,423.5 267.7,424.9 266.3,426.3 264.9,427.7 263.5,429.1 262.2,430.6 260.9,432.2 259.7,433.7 258.5,435.3 257.4,437.0 256.3,438.6 255.2,440.3 254.2,442.0 253.2,443.7 252.3,445.5 251.4,447.3 250.6,449.1 249.8,450.9 249.0,452.8 248.4,454.6 247.7,456.5 247.1,458.4 246.6,460.3 246.1,462.3 245.7,464.2 245.3,466.2 244.9,468.1 244.7,470.1 244.4,472.1 244.2,474.0 244.1,476.0 244.0,478.0 244.0,480.0 244.0,482.0 244.1,484.0 244.2,486.0 244.4,487.9 244.7,489.9 244.9,491.9 245.3,493.8 245.7,495.8 246.1,497.7 246.6,499.7 247.1,501.6 247.7,503.5 248.4,505.4 249.0,507.2 249.8,509.1 250.6,510.9 251.4,512.7 252.3,514.5 253.2,516.3 254.2,518.0 255.2,519.7 256.3,521.4 257.4,523.0 258.5,524.7 259.7,526.3 260.9,527.8 262.2,529.4 263.5,530.9 264.9,532.3 266.3,533.7 267.7,535.1 269.1,536.5 270.6,537.8 272.2,539.1 273.7,540.3 275.3,541.5 277.0,542.6 278.6,543.7 280.3,544.8 282.0,545.8 283.7,546.8 285.5,547.7 287.3,548.6 289.1,549.4 290.9,550.2 292.8,551.0 294.6,551.6 296.5,552.3 298.4,552.9 300.3,553.4 302.3,553.9 304.2,554.3 306.2,554.7 308.1,555.1 310.1,555.3 312.1,555.6 314.0,555.8 316.0,555.9 318.0,556.0 320.0,556.0 322.0,556.0 324.0,555.9 326.0,555.8 327.9,555.6 329.9,555.3 331.9,555.1 333.8,554.7 335.8,554.3 337.7,553.9 339.7,553.4 341.6,552.9 343.5,552.3 345.4,551.6 347.2,551.0 349.1,550.2 350.9,549.4 352.7,548.6 354.5,547.7 356.3,546.8 358.0,545.8 359.7,544.8 361.4,543.7 363.0,542.6 364.7,541.5 366.3,540.3 367.8,539.1 369.4,537.8 370.9,536.5 372.3,535.1 373.7,533.7 375.1,532.3 376.5,530.9 377.8,529.4 379.1,527.8 380.3,526.3 381.5,524.7 382.6,523.0 383.7,521.4 384.8,519.7 385.8,518.0 386.8,516.3 387.7,514.5 388.6,512.7 389.4,510.9 390.2,509.1 391.0,507.2 391.6,505.4 392.3,503.5 392.9,501.6 393.4,499.7 393.9,497.7 394.3,495.8 394.7,493.8 395.1,491.9 395.3,489.9 395.6,487.9 395.8,486.0 395.9,484.0 396.0,482.0" fill="none" stroke="#6b7280" stroke-width="2.0" stroke-linecap="round" stroke-linejoin="round" opacity="0.75"/>
<polyline points="548.0,480.0 547.9,479.0 547.7,478.0 547.3,477.0 546.8,476.0 546.0,475.0 545.2,474.1 544.2,473.1 543.0,472.1 541.7,471.1 540.2,470.2 538.6,469.2 536.8,468.3 534.9,467.3 532.9,466.4 530.6,465.5 528.3,464.5 525.8,463.6 523.1,462.7 520.4,461.9 517.5,461.0 514.4,460.1 511.2,459.3 507.9,458.5 504.5,457.7 500.9,456.9 497.2,456.1 493.4,455.3 489.4,454.6 485.4,453.8 481.2,453.1 476.9,452.4 472.6,451.8 468.1,451.1 463.5,450.5 458.8,449.9 454.0,449.3 449.1,448.7 444.2,448.1 439.1,447.6 434.0,447.1 428.8,446.6 423.5,446.1 418.2,445.7 412.7,445.3 407.3,444.9 401.7,444.5 396.1,444.2 390.5,443.9 384.8,443.6 379.0,443.3 373.2,443.0 367.4,442.8 361.5,442.6 355.7,442.5 349.8,442.3 343.8,442.2 337.9,442.1 331.9,442.1 326.0,442.0 320.0,442.0 314.0,442.0 308.1,442.1 302.1,442.1 296.2,442.2 290.2,442.3 284.3,442.5 278.5,442.6 272.6,442.8 266.8,443.0 261.0,443.3 255.2,443.6 249.5,443.9 243.9,444.2 238.3,444.5 232.7,444.9 227.3,445.3 221.8,445.7 216.5,446.1 211.2,446.6 206.0,447.1 200.9,447.6 195.8,448.1 190.9,448.7 186.0,449.3 181.2,449.9 176.5,450.5 171.9,451.1 167.4,451.8 163.1,452.4 158.8,453.1 154.6,453.8 150.6,454.6 146.6,455.3 142.8,456.1 139.1,456.9 135.5,457.7 132.1,458.5 128.8,459.3 125.6,460.1 122.5,461.0 119.6,461.9 116.9,462.7 114.2,463.6 111.7,464.5 109.4,465.5 107.1,466.4 105.1,467.3 103.2,468.3 101.4,469.2 99.8,470.2 98.3,471.1 97.0,472.1 95.8,473.1 94.8,474.1 94.0,475.0 93.2,476.0 92.7,477.0 92.3,478.0 92.1,479.0 92.0,480.0 92.1,481.0 92.3,482.0 92.7,483.0 93.2,484.0 94.0,485.0 94.8,485.9 95.8,486.9 97.0,487.9 98.3,488.9 99.8,489.8 101.4,490.8 103.2,491.7 105.1,492.7 107.1,493.6 109.4,494.5 111.7,495.5 114.2,496.4 116.9,497.3 119.6,498.1 122.5,499.0 125.6,499.9 128.8,500.7 132.1,501.5 135.5,502.3 139.1,503.1 142.8,503.9 146.6,504.7 150.6,505.4 154.6,506.2 158.8,506.9 163.1,507.6 167.4,508.2 171.9,508.9 176.5,509.5 181.2,510.1 186.0,510.7 190.9,511.3 195.8,511.9 200.9,512.4 206.0,512.9 211.2,513.4 216.5,513.9 221.8,514.3 227.3,514.7 232.7,515.1 238.3,515.5 243.9,515.8 249.5,516.1 255.2,516.4 261.0,516.7 266.8,517.0 272.6,517.2 278.5,517.4 284.3,517.5 290.2,517.7 296.2,517.8 302.1,517.9 308.1,517.9 314.0,518.0 320.0,518.0 326.0,518.0 331.9,517.9 337.9,517.9 343.8,517.8 349.8,517.7 355.7,517.5 361.5,517.4 367.4,517.2 373.2,517.0 379.0,516.7 384.8,516.4 390.5,516.1 396.1,515.8 401.7,515.5 407.3,515.1 412.7,514.7 418.2,514.3 423.5,513.9 428.8,513.4 434.0,512.9 439.1,512.4 444.2,511.9 449.1,511.3 454.0,510.7 458.8,510.1 463.5,509.5 468.1,508.9 472.6,508.2 476.9,507.6 481.2,506.9 485.4,506.2 489.4,505.4 493.4,504.7 497.2,503.9 500.9,503.1 504.5,502.3 507.9,501.5 511.2,500.7 514.4,499.9 517.5,499.0 520.4,498.1 523.1,497.3 525.8,496.4 528.3,495.5 530.6,494.5 532.9,493.6 534.9,492.7 536.8,491.7 538.6,490.8 540.2,489.8 541.7,488.9 543.0,487.9 544.2,486.9 545.2,485.9 546.0,485.0 546.8,484.0 547.3,483.0 547.7,482.0 547.9,481.0" fill="none" stroke="#38bdf8" stroke-width="4.2" stroke-linecap="round" stroke-linejoin="round" opacity="0.95"/>
<line x1="320.0" y1="624.4" x2="320.0" y2="335.6" stroke="#facc15" stroke-width="2.5" stroke-linecap="round" opacity="0.90" stroke-dasharray="10 10"/>
<line x1="175.6" y1="480.0" x2="464.4" y2="480.0" stroke="#facc15" stroke-width="2.5" stroke-linecap="round" opacity="0.90" stroke-dasharray="10 10"/>
<line x1="320.0" y1="480.0" x2="367.2" y2="539.5" stroke="#61758a" stroke-width="1.3" stroke-linecap="round" opacity="0.70"/>
<line x1="320.0" y1="480.0" x2="461.7" y2="509.8" stroke="#38bdf8" stroke-width="2.0" stroke-linecap="round" opacity="0.90"/>
<polygon points="461.7,509.8 451.2,501.4 448.8,513.2" fill="#38bdf8"/>
<line x1="320.0" y1="480.0" x2="392.6" y2="502.5" stroke="#61758a" stroke-width="1.3" stroke-linecap="round" opacity="0.70"/>
<line x1="320.0" y1="480.0" x2="537.8" y2="491.2" stroke="#38bdf8" stroke-width="2.0" stroke-linecap="round" opacity="0.90"/>
<polygon points="537.8,491.2 526.1,484.6 525.5,496.6" fill="#38bdf8"/>
<line x1="320.0" y1="480.0" x2="388.4" y2="446.9" stroke="#61758a" stroke-width="1.3" stroke-linecap="round" opacity="0.70"/>
<line x1="320.0" y1="480.0" x2="525.3" y2="463.5" stroke="#38bdf8" stroke-width="2.0" stroke-linecap="round" opacity="0.90"/>
<polygon points="525.3,463.5 512.9,458.5 513.8,470.4" fill="#38bdf8"/>
<line x1="320.0" y1="480.0" x2="347.5" y2="409.2" stroke="#61758a" stroke-width="1.3" stroke-linecap="round" opacity="0.70"/>
<line x1="320.0" y1="480.0" x2="402.6" y2="444.6" stroke="#38bdf8" stroke-width="2.0" stroke-linecap="round" opacity="0.90"/>
<polygon points="402.6,444.6 389.2,443.8 394.0,454.8" fill="#38bdf8"/>
<text x="94.0" y="690.0" class="body" text-anchor="start"><tspan x="94.0" dy="0">The x-axis and y-axis stay closed,</tspan><tspan x="94.0" dy="22">so the plane splits into two</tspan><tspan x="94.0" dy="22">independent lanes.</tspan></text>
<text x="94.0" y="790.0" class="small" text-anchor="start"><tspan x="94.0" dy="0">No failure here. This is the clean</tspan><tspan x="94.0" dy="20">diagonalizable case.</tspan></text>
<rect x="600.0" y="220.0" width="500.0" height="600.0" rx="28.0" fill="#122033" stroke="#32485f" stroke-width="2.0"/>
<text x="624.0" y="258.0" class="label" text-anchor="start">Real rotation</text>
<text x="624.0" y="288.0" class="small" text-anchor="start"><tspan x="624.0" dy="0">[[0.5, -0.866025],</tspan><tspan x="624.0" dy="20">[0.866025, 0.5]]</tspan><tspan x="624.0" dy="20">the whole plane only</tspan></text>
<rect x="700.0" y="330.0" width="300.0" height="300.0" rx="18.0" fill="#0b1524" stroke="#334155" stroke-width="1.5"/>
<line x1="775.0" y1="340.0" x2="775.0" y2="620.0" stroke="#223246" stroke-width="1.0" stroke-linecap="round" opacity="0.85"/>
<line x1="710.0" y1="405.0" x2="990.0" y2="405.0" stroke="#223246" stroke-width="1.0" stroke-linecap="round" opacity="0.85"/>
<line x1="850.0" y1="340.0" x2="850.0" y2="620.0" stroke="#223246" stroke-width="1.0" stroke-linecap="round" opacity="0.85"/>
<line x1="710.0" y1="480.0" x2="990.0" y2="480.0" stroke="#223246" stroke-width="1.0" stroke-linecap="round" opacity="0.85"/>
<line x1="925.0" y1="340.0" x2="925.0" y2="620.0" stroke="#223246" stroke-width="1.0" stroke-linecap="round" opacity="0.85"/>
<line x1="710.0" y1="555.0" x2="990.0" y2="555.0" stroke="#223246" stroke-width="1.0" stroke-linecap="round" opacity="0.85"/>
<line x1="714.0" y1="480.0" x2="986.0" y2="480.0" stroke="#4b647c" stroke-width="1.4" stroke-linecap="round" opacity="1.00"/>
<line x1="850.0" y1="344.0" x2="850.0" y2="616.0" stroke="#4b647c" stroke-width="1.4" stroke-linecap="round" opacity="1.00"/>
<polyline points="926.0,480.0 926.0,478.0 925.9,476.0 925.8,474.0 925.6,472.1 925.3,470.1 925.1,468.1 924.7,466.2 924.3,464.2 923.9,462.3 923.4,460.3 922.9,458.4 922.3,456.5 921.6,454.6 921.0,452.8 920.2,450.9 919.4,449.1 918.6,447.3 917.7,445.5 916.8,443.7 915.8,442.0 914.8,440.3 913.7,438.6 912.6,437.0 911.5,435.3 910.3,433.7 909.1,432.2 907.8,430.6 906.5,429.1 905.1,427.7 903.7,426.3 902.3,424.9 900.9,423.5 899.4,422.2 897.8,420.9 896.3,419.7 894.7,418.5 893.0,417.4 891.4,416.3 889.7,415.2 888.0,414.2 886.3,413.2 884.5,412.3 882.7,411.4 880.9,410.6 879.1,409.8 877.2,409.0 875.4,408.4 873.5,407.7 871.6,407.1 869.7,406.6 867.7,406.1 865.8,405.7 863.8,405.3 861.9,404.9 859.9,404.7 857.9,404.4 856.0,404.2 854.0,404.1 852.0,404.0 850.0,404.0 848.0,404.0 846.0,404.1 844.0,404.2 842.1,404.4 840.1,404.7 838.1,404.9 836.2,405.3 834.2,405.7 832.3,406.1 830.3,406.6 828.4,407.1 826.5,407.7 824.6,408.4 822.8,409.0 820.9,409.8 819.1,410.6 817.3,411.4 815.5,412.3 813.7,413.2 812.0,414.2 810.3,415.2 808.6,416.3 807.0,417.4 805.3,418.5 803.7,419.7 802.2,420.9 800.6,422.2 799.1,423.5 797.7,424.9 796.3,426.3 794.9,427.7 793.5,429.1 792.2,430.6 790.9,432.2 789.7,433.7 788.5,435.3 787.4,437.0 786.3,438.6 785.2,440.3 784.2,442.0 783.2,443.7 782.3,445.5 781.4,447.3 780.6,449.1 779.8,450.9 779.0,452.8 778.4,454.6 777.7,456.5 777.1,458.4 776.6,460.3 776.1,462.3 775.7,464.2 775.3,466.2 774.9,468.1 774.7,470.1 774.4,472.1 774.2,474.0 774.1,476.0 774.0,478.0 774.0,480.0 774.0,482.0 774.1,484.0 774.2,486.0 774.4,487.9 774.7,489.9 774.9,491.9 775.3,493.8 775.7,495.8 776.1,497.7 776.6,499.7 777.1,501.6 777.7,503.5 778.4,505.4 779.0,507.2 779.8,509.1 780.6,510.9 781.4,512.7 782.3,514.5 783.2,516.3 784.2,518.0 785.2,519.7 786.3,521.4 787.4,523.0 788.5,524.7 789.7,526.3 790.9,527.8 792.2,529.4 793.5,530.9 794.9,532.3 796.3,533.7 797.7,535.1 799.1,536.5 800.6,537.8 802.2,539.1 803.7,540.3 805.3,541.5 807.0,542.6 808.6,543.7 810.3,544.8 812.0,545.8 813.7,546.8 815.5,547.7 817.3,548.6 819.1,549.4 820.9,550.2 822.8,551.0 824.6,551.6 826.5,552.3 828.4,552.9 830.3,553.4 832.3,553.9 834.2,554.3 836.2,554.7 838.1,555.1 840.1,555.3 842.1,555.6 844.0,555.8 846.0,555.9 848.0,556.0 850.0,556.0 852.0,556.0 854.0,555.9 856.0,555.8 857.9,555.6 859.9,555.3 861.9,555.1 863.8,554.7 865.8,554.3 867.7,553.9 869.7,553.4 871.6,552.9 873.5,552.3 875.4,551.6 877.2,551.0 879.1,550.2 880.9,549.4 882.7,548.6 884.5,547.7 886.3,546.8 888.0,545.8 889.7,544.8 891.4,543.7 893.0,542.6 894.7,541.5 896.3,540.3 897.8,539.1 899.4,537.8 900.9,536.5 902.3,535.1 903.7,533.7 905.1,532.3 906.5,530.9 907.8,529.4 909.1,527.8 910.3,526.3 911.5,524.7 912.6,523.0 913.7,521.4 914.8,519.7 915.8,518.0 916.8,516.3 917.7,514.5 918.6,512.7 919.4,510.9 920.2,509.1 921.0,507.2 921.6,505.4 922.3,503.5 922.9,501.6 923.4,499.7 923.9,497.7 924.3,495.8 924.7,493.8 925.1,491.9 925.3,489.9 925.6,487.9 925.8,486.0 925.9,484.0 926.0,482.0" fill="none" stroke="#6b7280" stroke-width="2.0" stroke-linecap="round" stroke-linejoin="round" opacity="0.75"/>
<polyline points="888.0,414.2 886.3,413.2 884.5,412.3 882.7,411.4 880.9,410.6 879.1,409.8 877.2,409.0 875.4,408.4 873.5,407.7 871.6,407.1 869.7,406.6 867.7,406.1 865.8,405.7 863.8,405.3 861.9,404.9 859.9,404.7 857.9,404.4 856.0,404.2 854.0,404.1 852.0,404.0 850.0,404.0 848.0,404.0 846.0,404.1 844.0,404.2 842.1,404.4 840.1,404.7 838.1,404.9 836.2,405.3 834.2,405.7 832.3,406.1 830.3,406.6 828.4,407.1 826.5,407.7 824.6,408.4 822.8,409.0 820.9,409.8 819.1,410.6 817.3,411.4 815.5,412.3 813.7,413.2 812.0,414.2 810.3,415.2 808.6,416.3 807.0,417.4 805.3,418.5 803.7,419.7 802.2,420.9 800.6,422.2 799.1,423.5 797.7,424.9 796.3,426.3 794.9,427.7 793.5,429.1 792.2,430.6 790.9,432.2 789.7,433.7 788.5,435.3 787.4,437.0 786.3,438.6 785.2,440.3 784.2,442.0 783.2,443.7 782.3,445.5 781.4,447.3 780.6,449.1 779.8,450.9 779.0,452.8 778.4,454.6 777.7,456.5 777.1,458.4 776.6,460.3 776.1,462.3 775.7,464.2 775.3,466.2 774.9,468.1 774.7,470.1 774.4,472.1 774.2,474.0 774.1,476.0 774.0,478.0 774.0,480.0 774.0,482.0 774.1,484.0 774.2,486.0 774.4,487.9 774.7,489.9 774.9,491.9 775.3,493.8 775.7,495.8 776.1,497.7 776.6,499.7 777.1,501.6 777.7,503.5 778.4,505.4 779.0,507.2 779.8,509.1 780.6,510.9 781.4,512.7 782.3,514.5 783.2,516.3 784.2,518.0 785.2,519.7 786.3,521.4 787.4,523.0 788.5,524.7 789.7,526.3 790.9,527.8 792.2,529.4 793.5,530.9 794.9,532.3 796.3,533.7 797.7,535.1 799.1,536.5 800.6,537.8 802.2,539.1 803.7,540.3 805.3,541.5 807.0,542.6 808.6,543.7 810.3,544.8 812.0,545.8 813.7,546.8 815.5,547.7 817.3,548.6 819.1,549.4 820.9,550.2 822.8,551.0 824.6,551.6 826.5,552.3 828.4,552.9 830.3,553.4 832.3,553.9 834.2,554.3 836.2,554.7 838.1,555.1 840.1,555.3 842.1,555.6 844.0,555.8 846.0,555.9 848.0,556.0 850.0,556.0 852.0,556.0 854.0,555.9 856.0,555.8 857.9,555.6 859.9,555.3 861.9,555.1 863.8,554.7 865.8,554.3 867.7,553.9 869.7,553.4 871.6,552.9 873.5,552.3 875.4,551.6 877.2,551.0 879.1,550.2 880.9,549.4 882.7,548.6 884.5,547.7 886.3,546.8 888.0,545.8 889.7,544.8 891.4,543.7 893.0,542.6 894.7,541.5 896.3,540.3 897.8,539.1 899.4,537.8 900.9,536.5 902.3,535.1 903.7,533.7 905.1,532.3 906.5,530.9 907.8,529.4 909.1,527.8 910.3,526.3 911.5,524.7 912.6,523.0 913.7,521.4 914.8,519.7 915.8,518.0 916.8,516.3 917.7,514.5 918.6,512.7 919.4,510.9 920.2,509.1 921.0,507.2 921.6,505.4 922.3,503.5 922.9,501.6 923.4,499.7 923.9,497.7 924.3,495.8 924.7,493.8 925.1,491.9 925.3,489.9 925.6,487.9 925.8,486.0 925.9,484.0 926.0,482.0 926.0,480.0 926.0,478.0 925.9,476.0 925.8,474.0 925.6,472.1 925.3,470.1 925.1,468.1 924.7,466.2 924.3,464.2 923.9,462.3 923.4,460.3 922.9,458.4 922.3,456.5 921.6,454.6 921.0,452.8 920.2,450.9 919.4,449.1 918.6,447.3 917.7,445.5 916.8,443.7 915.8,442.0 914.8,440.3 913.7,438.6 912.6,437.0 911.5,435.3 910.3,433.7 909.1,432.2 907.8,430.6 906.5,429.1 905.1,427.7 903.7,426.3 902.3,424.9 900.9,423.5 899.4,422.2 897.8,420.9 896.3,419.7 894.7,418.5 893.0,417.4 891.4,416.3 889.7,415.2" fill="none" stroke="#f97316" stroke-width="4.2" stroke-linecap="round" stroke-linejoin="round" opacity="0.95"/>
<line x1="850.0" y1="480.0" x2="897.2" y2="539.5" stroke="#61758a" stroke-width="1.3" stroke-linecap="round" opacity="0.70"/>
<line x1="850.0" y1="480.0" x2="925.2" y2="468.9" stroke="#f97316" stroke-width="2.0" stroke-linecap="round" opacity="0.90"/>
<polygon points="925.2,468.9 912.4,464.7 914.2,476.5" fill="#f97316"/>
<line x1="850.0" y1="480.0" x2="922.6" y2="502.5" stroke="#61758a" stroke-width="1.3" stroke-linecap="round" opacity="0.70"/>
<line x1="850.0" y1="480.0" x2="905.8" y2="428.4" stroke="#f97316" stroke-width="2.0" stroke-linecap="round" opacity="0.90"/>
<polygon points="905.8,428.4 892.9,432.1 901.0,440.9" fill="#f97316"/>
<line x1="850.0" y1="480.0" x2="918.4" y2="446.9" stroke="#61758a" stroke-width="1.3" stroke-linecap="round" opacity="0.70"/>
<line x1="850.0" y1="480.0" x2="855.6" y2="404.2" stroke="#f97316" stroke-width="2.0" stroke-linecap="round" opacity="0.90"/>
<polygon points="855.6,404.2 848.7,415.7 860.7,416.6" fill="#f97316"/>
<line x1="850.0" y1="480.0" x2="877.5" y2="409.2" stroke="#61758a" stroke-width="1.3" stroke-linecap="round" opacity="0.70"/>
<line x1="850.0" y1="480.0" x2="802.4" y2="420.7" stroke="#f97316" stroke-width="2.0" stroke-linecap="round" opacity="0.90"/>
<polygon points="802.4,420.7 805.3,433.8 814.6,426.3" fill="#f97316"/>
<text x="624.0" y="690.0" class="body" text-anchor="start"><tspan x="624.0" dy="0">Every nonzero vector gets turned</tspan><tspan x="624.0" dy="22">off its own line, so there is no</tspan><tspan x="624.0" dy="22">nontrivial real invariant line.</tspan></text>
<text x="624.0" y="790.0" class="small" text-anchor="start"><tspan x="624.0" dy="0">Failure type: no real eigenline at</tspan><tspan x="624.0" dy="20">all.</tspan></text>
<rect x="1130.0" y="220.0" width="500.0" height="600.0" rx="28.0" fill="#122033" stroke="#32485f" stroke-width="2.0"/>
<text x="1154.0" y="258.0" class="label" text-anchor="start">Defective Jordan block</text>
<text x="1154.0" y="288.0" class="small" text-anchor="start"><tspan x="1154.0" dy="0">[[2, 1], [0, 2]]</tspan><tspan x="1154.0" dy="20">one invariant line</tspan></text>
<rect x="1230.0" y="330.0" width="300.0" height="300.0" rx="18.0" fill="#0b1524" stroke="#334155" stroke-width="1.5"/>
<line x1="1305.0" y1="340.0" x2="1305.0" y2="620.0" stroke="#223246" stroke-width="1.0" stroke-linecap="round" opacity="0.85"/>
<line x1="1240.0" y1="405.0" x2="1520.0" y2="405.0" stroke="#223246" stroke-width="1.0" stroke-linecap="round" opacity="0.85"/>
<line x1="1380.0" y1="340.0" x2="1380.0" y2="620.0" stroke="#223246" stroke-width="1.0" stroke-linecap="round" opacity="0.85"/>
<line x1="1240.0" y1="480.0" x2="1520.0" y2="480.0" stroke="#223246" stroke-width="1.0" stroke-linecap="round" opacity="0.85"/>
<line x1="1455.0" y1="340.0" x2="1455.0" y2="620.0" stroke="#223246" stroke-width="1.0" stroke-linecap="round" opacity="0.85"/>
<line x1="1240.0" y1="555.0" x2="1520.0" y2="555.0" stroke="#223246" stroke-width="1.0" stroke-linecap="round" opacity="0.85"/>
<line x1="1244.0" y1="480.0" x2="1516.0" y2="480.0" stroke="#4b647c" stroke-width="1.4" stroke-linecap="round" opacity="1.00"/>
<line x1="1380.0" y1="344.0" x2="1380.0" y2="616.0" stroke="#4b647c" stroke-width="1.4" stroke-linecap="round" opacity="1.00"/>
<polyline points="1456.0,480.0 1456.0,478.0 1455.9,476.0 1455.8,474.0 1455.6,472.1 1455.3,470.1 1455.1,468.1 1454.7,466.2 1454.3,464.2 1453.9,462.3 1453.4,460.3 1452.9,458.4 1452.3,456.5 1451.6,454.6 1451.0,452.8 1450.2,450.9 1449.4,449.1 1448.6,447.3 1447.7,445.5 1446.8,443.7 1445.8,442.0 1444.8,440.3 1443.7,438.6 1442.6,437.0 1441.5,435.3 1440.3,433.7 1439.1,432.2 1437.8,430.6 1436.5,429.1 1435.1,427.7 1433.7,426.3 1432.3,424.9 1430.9,423.5 1429.4,422.2 1427.8,420.9 1426.3,419.7 1424.7,418.5 1423.0,417.4 1421.4,416.3 1419.7,415.2 1418.0,414.2 1416.3,413.2 1414.5,412.3 1412.7,411.4 1410.9,410.6 1409.1,409.8 1407.2,409.0 1405.4,408.4 1403.5,407.7 1401.6,407.1 1399.7,406.6 1397.7,406.1 1395.8,405.7 1393.8,405.3 1391.9,404.9 1389.9,404.7 1387.9,404.4 1386.0,404.2 1384.0,404.1 1382.0,404.0 1380.0,404.0 1378.0,404.0 1376.0,404.1 1374.0,404.2 1372.1,404.4 1370.1,404.7 1368.1,404.9 1366.2,405.3 1364.2,405.7 1362.3,406.1 1360.3,406.6 1358.4,407.1 1356.5,407.7 1354.6,408.4 1352.8,409.0 1350.9,409.8 1349.1,410.6 1347.3,411.4 1345.5,412.3 1343.7,413.2 1342.0,414.2 1340.3,415.2 1338.6,416.3 1337.0,417.4 1335.3,418.5 1333.7,419.7 1332.2,420.9 1330.6,422.2 1329.1,423.5 1327.7,424.9 1326.3,426.3 1324.9,427.7 1323.5,429.1 1322.2,430.6 1320.9,432.2 1319.7,433.7 1318.5,435.3 1317.4,437.0 1316.3,438.6 1315.2,440.3 1314.2,442.0 1313.2,443.7 1312.3,445.5 1311.4,447.3 1310.6,449.1 1309.8,450.9 1309.0,452.8 1308.4,454.6 1307.7,456.5 1307.1,458.4 1306.6,460.3 1306.1,462.3 1305.7,464.2 1305.3,466.2 1304.9,468.1 1304.7,470.1 1304.4,472.1 1304.2,474.0 1304.1,476.0 1304.0,478.0 1304.0,480.0 1304.0,482.0 1304.1,484.0 1304.2,486.0 1304.4,487.9 1304.7,489.9 1304.9,491.9 1305.3,493.8 1305.7,495.8 1306.1,497.7 1306.6,499.7 1307.1,501.6 1307.7,503.5 1308.4,505.4 1309.0,507.2 1309.8,509.1 1310.6,510.9 1311.4,512.7 1312.3,514.5 1313.2,516.3 1314.2,518.0 1315.2,519.7 1316.3,521.4 1317.4,523.0 1318.5,524.7 1319.7,526.3 1320.9,527.8 1322.2,529.4 1323.5,530.9 1324.9,532.3 1326.3,533.7 1327.7,535.1 1329.1,536.5 1330.6,537.8 1332.2,539.1 1333.7,540.3 1335.3,541.5 1337.0,542.6 1338.6,543.7 1340.3,544.8 1342.0,545.8 1343.7,546.8 1345.5,547.7 1347.3,548.6 1349.1,549.4 1350.9,550.2 1352.8,551.0 1354.6,551.6 1356.5,552.3 1358.4,552.9 1360.3,553.4 1362.3,553.9 1364.2,554.3 1366.2,554.7 1368.1,555.1 1370.1,555.3 1372.1,555.6 1374.0,555.8 1376.0,555.9 1378.0,556.0 1380.0,556.0 1382.0,556.0 1384.0,555.9 1386.0,555.8 1387.9,555.6 1389.9,555.3 1391.9,555.1 1393.8,554.7 1395.8,554.3 1397.7,553.9 1399.7,553.4 1401.6,552.9 1403.5,552.3 1405.4,551.6 1407.2,551.0 1409.1,550.2 1410.9,549.4 1412.7,548.6 1414.5,547.7 1416.3,546.8 1418.0,545.8 1419.7,544.8 1421.4,543.7 1423.0,542.6 1424.7,541.5 1426.3,540.3 1427.8,539.1 1429.4,537.8 1430.9,536.5 1432.3,535.1 1433.7,533.7 1435.1,532.3 1436.5,530.9 1437.8,529.4 1439.1,527.8 1440.3,526.3 1441.5,524.7 1442.6,523.0 1443.7,521.4 1444.8,519.7 1445.8,518.0 1446.8,516.3 1447.7,514.5 1448.6,512.7 1449.4,510.9 1450.2,509.1 1451.0,507.2 1451.6,505.4 1452.3,503.5 1452.9,501.6 1453.4,499.7 1453.9,497.7 1454.3,495.8 1454.7,493.8 1455.1,491.9 1455.3,489.9 1455.6,487.9 1455.8,486.0 1455.9,484.0 1456.0,482.0" fill="none" stroke="#6b7280" stroke-width="2.0" stroke-linecap="round" stroke-linejoin="round" opacity="0.75"/>
<polyline points="1532.0,480.0 1533.9,476.0 1535.8,472.0 1537.5,468.1 1539.1,464.1 1540.6,460.2 1542.0,456.2 1543.3,452.3 1544.5,448.4 1545.5,444.5 1546.5,440.7 1547.3,436.8 1548.0,433.0 1548.7,429.3 1549.1,425.5 1549.5,421.8 1549.8,418.2 1549.9,414.6 1549.9,411.0 1549.8,407.5 1549.6,404.0 1549.3,400.6 1548.9,397.2 1548.3,393.9 1547.6,390.7 1546.9,387.5 1546.0,384.3 1544.9,381.3 1543.8,378.3 1542.6,375.4 1541.2,372.5 1539.8,369.7 1538.2,367.0 1536.5,364.4 1534.7,361.9 1532.8,359.4 1530.8,357.0 1528.7,354.7 1526.5,352.5 1524.2,350.4 1521.8,348.4 1519.3,346.4 1516.7,344.6 1514.0,342.8 1511.3,341.1 1508.4,339.6 1505.4,338.1 1502.4,336.7 1499.3,335.4 1496.0,334.3 1492.8,333.2 1489.4,332.2 1485.9,331.3 1482.4,330.5 1478.8,329.9 1475.2,329.3 1471.5,328.8 1467.7,328.5 1463.9,328.2 1460.0,328.1 1456.0,328.0 1452.0,328.1 1447.9,328.2 1443.8,328.5 1439.7,328.8 1435.5,329.3 1431.3,329.9 1427.0,330.5 1422.7,331.3 1418.4,332.2 1414.1,333.2 1409.7,334.3 1405.3,335.4 1400.9,336.7 1396.5,338.1 1392.0,339.6 1387.6,341.1 1383.2,342.8 1378.7,344.6 1374.3,346.4 1369.8,348.4 1365.4,350.4 1361.0,352.5 1356.5,354.7 1352.1,357.0 1347.8,359.4 1343.4,361.9 1339.1,364.4 1334.8,367.0 1330.5,369.7 1326.3,372.5 1322.1,375.4 1317.9,378.3 1313.8,381.3 1309.7,384.3 1305.7,387.5 1301.7,390.7 1297.8,393.9 1293.9,397.2 1290.1,400.6 1286.4,404.0 1282.7,407.5 1279.1,411.0 1275.5,414.6 1272.1,418.2 1268.7,421.8 1265.3,425.5 1262.1,429.3 1258.9,433.0 1255.8,436.8 1252.8,440.7 1249.9,444.5 1247.1,448.4 1244.4,452.3 1241.8,456.2 1239.2,460.2 1236.8,464.1 1234.4,468.1 1232.2,472.0 1230.0,476.0 1228.0,480.0 1226.1,484.0 1224.2,488.0 1222.5,491.9 1220.9,495.9 1219.4,499.8 1218.0,503.8 1216.7,507.7 1215.5,511.6 1214.5,515.5 1213.5,519.3 1212.7,523.2 1212.0,527.0 1211.3,530.7 1210.9,534.5 1210.5,538.2 1210.2,541.8 1210.1,545.4 1210.1,549.0 1210.2,552.5 1210.4,556.0 1210.7,559.4 1211.1,562.8 1211.7,566.1 1212.4,569.3 1213.1,572.5 1214.0,575.7 1215.1,578.7 1216.2,581.7 1217.4,584.6 1218.8,587.5 1220.2,590.3 1221.8,593.0 1223.5,595.6 1225.3,598.1 1227.2,600.6 1229.2,603.0 1231.3,605.3 1233.5,607.5 1235.8,609.6 1238.2,611.6 1240.7,613.6 1243.3,615.4 1246.0,617.2 1248.7,618.9 1251.6,620.4 1254.6,621.9 1257.6,623.3 1260.7,624.6 1264.0,625.7 1267.2,626.8 1270.6,627.8 1274.1,628.7 1277.6,629.5 1281.2,630.1 1284.8,630.7 1288.5,631.2 1292.3,631.5 1296.1,631.8 1300.0,631.9 1304.0,632.0 1308.0,631.9 1312.1,631.8 1316.2,631.5 1320.3,631.2 1324.5,630.7 1328.7,630.1 1333.0,629.5 1337.3,628.7 1341.6,627.8 1345.9,626.8 1350.3,625.7 1354.7,624.6 1359.1,623.3 1363.5,621.9 1368.0,620.4 1372.4,618.9 1376.8,617.2 1381.3,615.4 1385.7,613.6 1390.2,611.6 1394.6,609.6 1399.0,607.5 1403.5,605.3 1407.9,603.0 1412.2,600.6 1416.6,598.1 1420.9,595.6 1425.2,593.0 1429.5,590.3 1433.7,587.5 1437.9,584.6 1442.1,581.7 1446.2,578.7 1450.3,575.7 1454.3,572.5 1458.3,569.3 1462.2,566.1 1466.1,562.8 1469.9,559.4 1473.6,556.0 1477.3,552.5 1480.9,549.0 1484.5,545.4 1487.9,541.8 1491.3,538.2 1494.7,534.5 1497.9,530.7 1501.1,527.0 1504.2,523.2 1507.2,519.3 1510.1,515.5 1512.9,511.6 1515.6,507.7 1518.2,503.8 1520.8,499.8 1523.2,495.9 1525.6,491.9 1527.8,488.0 1530.0,484.0" fill="none" stroke="#a78bfa" stroke-width="4.2" stroke-linecap="round" stroke-linejoin="round" opacity="0.95"/>
<line x1="1235.6" y1="480.0" x2="1524.4" y2="480.0" stroke="#facc15" stroke-width="2.5" stroke-linecap="round" opacity="0.90" stroke-dasharray="10 10"/>
<line x1="1380.0" y1="480.0" x2="1427.2" y2="539.5" stroke="#61758a" stroke-width="1.3" stroke-linecap="round" opacity="0.70"/>
<line x1="1380.0" y1="480.0" x2="1415.0" y2="599.1" stroke="#a78bfa" stroke-width="2.0" stroke-linecap="round" opacity="0.90"/>
<polygon points="1415.0,599.1 1417.3,585.9 1405.8,589.2" fill="#a78bfa"/>
<line x1="1380.0" y1="480.0" x2="1452.6" y2="502.5" stroke="#61758a" stroke-width="1.3" stroke-linecap="round" opacity="0.70"/>
<line x1="1380.0" y1="480.0" x2="1502.8" y2="524.9" stroke="#a78bfa" stroke-width="2.0" stroke-linecap="round" opacity="0.90"/>
<polygon points="1502.8,524.9 1493.5,515.2 1489.4,526.4" fill="#a78bfa"/>
<line x1="1380.0" y1="480.0" x2="1448.4" y2="446.9" stroke="#61758a" stroke-width="1.3" stroke-linecap="round" opacity="0.70"/>
<line x1="1380.0" y1="480.0" x2="1549.9" y2="413.9" stroke="#a78bfa" stroke-width="2.0" stroke-linecap="round" opacity="0.90"/>
<polygon points="1549.9,413.9 1536.6,412.6 1540.9,423.8" fill="#a78bfa"/>
<line x1="1380.0" y1="480.0" x2="1407.5" y2="409.2" stroke="#61758a" stroke-width="1.3" stroke-linecap="round" opacity="0.70"/>
<line x1="1380.0" y1="480.0" x2="1505.9" y2="338.3" stroke="#a78bfa" stroke-width="2.0" stroke-linecap="round" opacity="0.90"/>
<polygon points="1505.9,338.3 1493.5,343.3 1502.4,351.3" fill="#a78bfa"/>
<text x="1154.0" y="690.0" class="body" text-anchor="start"><tspan x="1154.0" dy="0">The x-axis stays closed, but there</tspan><tspan x="1154.0" dy="22">is not a second independent</tspan><tspan x="1154.0" dy="22">eigenline to finish the split.</tspan></text>
<text x="1154.0" y="790.0" class="small" text-anchor="start"><tspan x="1154.0" dy="0">Failure type: one eigenline is not</tspan><tspan x="1154.0" dy="20">enough to span the plane.</tspan></text>
<rect x="70.0" y="860.0" width="500.0" height="390.0" rx="24.0" fill="#122033" stroke="#32485f" stroke-width="2.0"/>
<text x="94.0" y="898.0" class="label" text-anchor="start">How to read the three cases</text>
<text x="94.0" y="934.0" class="body" text-anchor="start"><tspan x="94.0" dy="0">• Diagonal case: two real eigenlines</tspan><tspan x="94.0" dy="22">span the plane.</tspan></text>
<text x="94.0" y="1030.0" class="body" text-anchor="start"><tspan x="94.0" dy="0">• Rotation: the plane survives, but</tspan><tspan x="94.0" dy="22">no real line does.</tspan></text>
<text x="94.0" y="1126.0" class="body" text-anchor="start"><tspan x="94.0" dy="0">• Jordan block: one eigenline</tspan><tspan x="94.0" dy="22">survives, but the second lane never</tspan><tspan x="94.0" dy="22">closes.</tspan></text>
<rect x="600.0" y="860.0" width="500.0" height="390.0" rx="24.0" fill="#122033" stroke="#32485f" stroke-width="2.0"/>
<text x="624.0" y="898.0" class="label" text-anchor="start">What the comparison is protecting</text>
<text x="624.0" y="934.0" class="body" text-anchor="start"><tspan x="624.0" dy="0">• Do not treat every failed</tspan><tspan x="624.0" dy="22">diagonalization as one story.</tspan></text>
<text x="624.0" y="1030.0" class="body" text-anchor="start"><tspan x="624.0" dy="0">• Rotation fails because there is no</tspan><tspan x="624.0" dy="22">real invariant line.</tspan></text>
<text x="624.0" y="1126.0" class="body" text-anchor="start"><tspan x="624.0" dy="0">• Jordan fails because one surviving</tspan><tspan x="624.0" dy="22">line is not enough.</tspan></text>
<rect x="1130.0" y="860.0" width="500.0" height="390.0" rx="24.0" fill="#122033" stroke="#32485f" stroke-width="2.0"/>
<text x="1154.0" y="898.0" class="label" text-anchor="start">Best next move</text>
<text x="1154.0" y="934.0" class="body" text-anchor="start"><tspan x="1154.0" dy="0">• Use the note and notebook with</tspan><tspan x="1154.0" dy="22">this card, then write one structural</tspan><tspan x="1154.0" dy="22">sentence per case.</tspan></text>
<text x="1154.0" y="1030.0" class="body" text-anchor="start"><tspan x="1154.0" dy="0">• Ask what the map preserves before</tspan><tspan x="1154.0" dy="22">reaching for a determinant.</tspan></text>
<text x="1154.0" y="1126.0" class="body" text-anchor="start"><tspan x="1154.0" dy="0">• If this lands, the next move is</tspan><tspan x="1154.0" dy="22">worked proof sets, not more</tspan><tspan x="1154.0" dy="22">vocabulary.</tspan></text>
<text x="70.0" y="1348.0" class="tiny" text-anchor="start">Generated from scripts/generate_invariant_line_comparison.py and scripts/invariant_line_examples.py</text>
</svg>
